# xmcd CD database file
#
# Track frame offsets:
#	150
#	27458
#	48912
#	77131
#	106728
#	126768
#	172750
#	204388
#	233598
#	265470
#	293522
#
# Disc length: 4005 seconds
#
# Revision: 0
# Processed by: cddbd v1.5.2PL0 Copyright (c) Steve Scherf et al.
# Submitted via: CDex 1.95
#
DISCID=880fa30b
DTITLE=Gunnar"Siljabloo"Nilson and Lars ErstrandTrio and Quintet - You're driving me crazy
DYEAR=2002
DGENRE=Jazz
TTITLE0=You're driving me crazy
TTITLE1=Skylark
TTITLE2=Am I blue
TTITLE3=Ev'rything is fine
TTITLE4=Rosetta
TTITLE5=Hit that jive Jack
TTITLE6=Tangerine
TTITLE7=Stars fell on Alabama
TTITLE8=Route 66
TTITLE9=Why try to change me now?
TTITLE10=Don't take your love from me
EXTD=YEAR: 2002
EXTT0=
EXTT1=
EXTT2=
EXTT3=
EXTT4=
EXTT5=
EXTT6=
EXTT7=
EXTT8=
EXTT9=
EXTT10=
PLAYORDER=
